<?xml version="1.0" standalone="no"?>
<!DOCTYPE svg PUBLIC "-//W3C//DTD SVG 20010904//EN"
 "http://www.w3.org/TR/2001/REC-SVG-20010904/DTD/svg10.dtd">
<svg version="1.0" xmlns="http://www.w3.org/2000/svg"
 width="41.000000pt" height="39.000000pt" viewBox="0 0 41.000000 39.000000"
 preserveAspectRatio="xMidYMid meet">
<metadata>
Created by potrace 1.16, written by Peter Selinger 2001-2019
</metadata>
<g transform="translate(0.000000,39.000000) scale(0.005125,-0.004875)"
fill="#000000" stroke="none">
<path d="M3945 6195 c-116 -14 -169 -23 -275 -50 -36 -10 -91 -22 -122 -28
-32 -6 -58 -14 -58 -19 0 -4 -9 -8 -20 -8 -11 0 -28 -4 -38 -9 -20 -10 -38
-18 -163 -71 -53 -22 -102 -40 -108 -40 -6 0 -11 -3 -11 -8 0 -4 -21 -17 -47
-30 -61 -29 -203 -116 -271 -164 -29 -21 -54 -38 -57 -38 -2 0 -17 -11 -32
-24 -16 -14 -66 -58 -113 -98 -47 -40 -113 -102 -147 -138 -143 -151 -173
-184 -178 -199 -3 -9 -18 -29 -33 -46 -15 -16 -31 -38 -35 -47 -3 -10 -10 -18
-16 -18 -5 0 -11 -8 -15 -17 -3 -10 -28 -54 -55 -98 -27 -44 -65 -109 -83
-145 -18 -36 -36 -66 -40 -68 -5 -2 -8 -12 -8 -23 0 -10 -4 -19 -10 -19 -5 0
-10 -7 -10 -15 0 -8 -4 -23 -10 -33 -5 -9 -17 -35 -26 -57 -10 -22 -21 -42
-24 -45 -3 -3 -11 -25 -17 -50 -6 -25 -19 -70 -28 -100 -72 -244 -115 -512
-115 -717 0 -85 19 -266 41 -388 20 -115 97 -395 120 -437 5 -10 9 -25 9 -33
0 -8 5 -15 10 -15 6 0 10 -6 10 -13 0 -7 11 -38 25 -68 48 -100 100 -204 106
-209 3 -3 12 -16 19 -30 13 -26 140 -221 150 -230 4 -4 91 -111 145 -178 25
-32 175 -174 223 -212 28 -23 52 -45 52 -49 0 -4 15 -15 33 -26 17 -10 39 -26
47 -34 13 -13 15 37 18 452 l2 467 685 0 685 0 0 -706 0 -707 128 7 c271 16
553 75 787 165 56 22 337 165 383 196 30 19 57 35 61 35 4 0 16 9 26 20 10 11
24 20 32 20 7 0 13 4 13 8 0 4 15 16 33 27 17 10 34 22 37 26 3 3 42 36 86 71
93 74 126 103 181 162 13 14 28 26 33 26 5 0 11 8 14 18 4 9 27 40 52 67 49
52 107 127 161 204 17 25 36 51 41 56 5 6 11 15 13 20 14 34 72 125 80 125 5
0 9 7 9 15 0 8 17 47 38 87 21 40 50 102 66 138 15 36 31 74 36 85 5 11 21 58
35 105 15 47 30 96 35 110 7 24 20 70 41 150 48 187 61 610 25 820 -32 180
-37 206 -48 245 -22 79 -80 251 -94 282 -8 17 -14 34 -14 37 0 4 -20 50 -45
103 -25 52 -45 97 -45 99 0 2 -15 27 -32 56 -18 29 -42 70 -52 91 -11 20 -23
37 -28 37 -4 0 -8 4 -8 9 0 10 -76 126 -97 149 -11 11 -13 -13 -14 -120 0
-119 -13 -226 -30 -253 -4 -5 -10 -26 -14 -45 -10 -46 -75 -170 -120 -228 -41
-53 -143 -150 -186 -177 -24 -16 -46 -31 -49 -34 -12 -15 -110 -61 -129 -61
-11 0 -21 -4 -21 -9 0 -5 -12 -11 -27 -14 -16 -3 -48 -11 -73 -17 -60 -15 -52
-15 -1464 -12 l-1229 2 6 148 c5 137 17 223 38 264 5 10 9 27 9 38 0 11 5 20
10 20 6 0 10 7 10 17 0 22 50 123 61 123 5 0 9 5 9 11 0 18 84 121 136 167
133 118 260 179 438 211 41 8 463 11 1328 11 808 0 1268 3 1268 10 0 5 -12 22
-28 38 -15 15 -45 50 -67 77 -50 61 -180 190 -214 211 -26 17 -49 37 -109 93
-19 17 -37 31 -41 31 -6 0 -89 57 -101 70 -3 3 -19 12 -35 21 -17 9 -70 41
-120 71 -49 29 -106 61 -125 70 -88 41 -159 71 -210 90 -60 21 -82 30 -120 46
-14 6 -62 19 -107 28 -46 10 -83 22 -83 26 0 4 -15 8 -32 8 -18 0 -51 5 -73
10 -145 37 -483 49 -690 25z m1205 -2282 c0 -103 -16 -228 -39 -320 -11 -41
-50 -133 -62 -143 -3 -3 -11 -19 -17 -36 -7 -16 -24 -42 -37 -57 -14 -14 -25
-30 -25 -34 0 -9 -132 -137 -176 -170 -16 -12 -58 -37 -94 -54 -36 -17 -74
-36 -85 -42 -11 -5 -51 -19 -90 -30 -67 -20 -103 -21 -902 -24 l-833 -4 0 511
0 510 1180 0 1180 0 0 -107z"/>
</g>
</svg>
