<?xml version="1.0" standalone="no"?>
<!DOCTYPE svg PUBLIC "-//W3C//DTD SVG 20010904//EN"
 "http://www.w3.org/TR/2001/REC-SVG-20010904/DTD/svg10.dtd">
<svg version="1.0" xmlns="http://www.w3.org/2000/svg"
 width="41.000000pt" height="39.000000pt" viewBox="0 0 41.000000 39.000000"
 preserveAspectRatio="xMidYMid meet">
<metadata>
Created by potrace 1.16, written by Peter Selinger 2001-2019
</metadata>
<g transform="translate(0.000000,39.000000) scale(0.001256,-0.001256)"
fill="#000000" stroke="none">
<path d="M15990 25557 c-3 -3 -84 -7 -181 -10 -97 -2 -180 -7 -185 -10 -5 -2
-53 -8 -106 -11 -82 -5 -99 -4 -113 10 -15 16 -16 16 -13 -2 2 -15 -3 -19 -32
-20 -19 -1 -42 -4 -50 -7 -28 -10 -100 -15 -95 -7 3 5 -9 4 -27 -1 -54 -15
-197 -31 -286 -32 -65 0 -82 -3 -78 -14 3 -7 -1 -13 -9 -13 -8 0 -15 5 -15 11
0 7 -14 8 -40 4 -26 -4 -40 -3 -40 4 0 6 -7 8 -16 4 -8 -3 -13 -11 -10 -18 7
-20 -17 -26 -144 -41 -81 -9 -118 -10 -127 -2 -10 8 -13 6 -13 -6 0 -18 -53
-43 -58 -28 -1 5 -14 7 -27 4 -20 -3 -24 -1 -19 12 4 11 1 16 -10 16 -26 0
-15 -32 14 -42 20 -7 -71 -22 -135 -23 -27 0 -54 -5 -60 -11 -17 -19 -45 -25
-45 -9 0 18 -26 20 -34 3 -5 -10 -7 -10 -12 0 -8 17 -24 5 -24 -18 0 -23 -32
-33 -107 -34 -35 -1 -54 -6 -58 -15 -3 -8 -14 -11 -29 -7 -15 4 -28 0 -36 -10
-7 -8 -20 -12 -27 -9 -8 3 -21 -2 -29 -10 -9 -8 -23 -15 -32 -16 -9 0 -28 -3
-42 -5 -42 -8 -53 -8 -109 0 -49 8 -53 7 -47 -9 4 -12 0 -18 -14 -22 -11 -3
-20 -11 -20 -18 0 -19 -34 -25 -137 -25 l-93 0 0 -29 c0 -37 -40 -54 -97 -40
-53 12 -53 12 -53 -17 0 -16 -5 -24 -12 -21 -7 2 -12 11 -10 21 2 10 -4 16
-18 16 -13 0 -20 -7 -20 -20 0 -12 7 -20 17 -20 37 0 -2 -15 -70 -26 -43 -8
-73 -9 -75 -3 -5 14 -34 11 -30 -3 3 -7 -11 -25 -30 -40 -31 -25 -41 -28 -98
-25 -56 3 -64 1 -64 -14 0 -9 5 -19 12 -21 19 -7 -74 -41 -109 -40 -18 1 -39
-5 -47 -13 -8 -8 -18 -15 -22 -15 -4 0 -16 -8 -26 -17 -17 -16 -35 -20 -85
-22 -13 -1 -23 -7 -23 -16 0 -8 -7 -15 -16 -15 -8 0 -22 -7 -30 -15 -9 -8 -24
-15 -35 -15 -10 0 -19 -4 -19 -9 0 -5 -11 -8 -25 -8 -14 0 -25 3 -25 8 0 5 -6
6 -14 3 -8 -3 -13 -11 -10 -19 6 -14 -72 -59 -87 -50 -5 4 -12 -1 -15 -10 -4
-9 -12 -14 -19 -11 -8 3 -16 -2 -19 -10 -7 -19 -26 -18 -26 1 0 8 -9 15 -20
15 -24 0 -26 -16 -4 -28 13 -7 10 -11 -17 -22 -18 -8 -52 -14 -75 -15 -43 -1
-70 -14 -46 -22 17 -7 15 -23 -4 -23 -8 0 -22 -7 -30 -15 -10 -9 -26 -12 -47
-9 -22 4 -28 3 -18 -4 7 -5 10 -15 7 -21 -10 -16 -26 -14 -26 4 0 8 -6 15 -14
15 -23 0 -28 -18 -9 -30 15 -10 15 -11 1 -6 -9 2 -19 -2 -22 -10 -3 -8 -9 -14
-13 -13 -4 1 -17 1 -28 0 -15 -1 -17 -3 -6 -10 20 -13 -8 -21 -31 -9 -13 6
-16 5 -13 -4 6 -15 -52 -51 -66 -42 -5 3 -9 0 -9 -7 0 -7 -10 -9 -29 -6 -26 5
-31 2 -43 -24 -8 -18 -25 -34 -45 -41 -18 -7 -33 -16 -33 -20 0 -4 -12 -3 -26
2 -33 13 -33 13 -27 -8 5 -22 -8 -33 -69 -56 -27 -10 -48 -24 -48 -31 0 -14
-10 -19 -68 -30 -22 -5 -32 -11 -28 -20 5 -14 -34 -45 -58 -45 -7 0 -17 -7
-20 -16 -4 -11 -14 -15 -30 -12 -15 3 -23 1 -20 -6 4 -13 -86 -76 -136 -96
-19 -7 -40 -17 -46 -22 -6 -5 -20 -5 -29 -1 -15 5 -17 3 -12 -11 9 -22 -29
-60 -50 -51 -8 2 -11 1 -8 -5 7 -12 -78 -62 -110 -64 -27 -1 -33 -11 -12 -19
6 -3 -1 -6 -16 -6 -21 -1 -27 -5 -25 -18 2 -14 -6 -19 -36 -23 -22 -3 -41 -11
-44 -17 -2 -7 1 -13 8 -13 6 0 8 -5 5 -11 -4 -6 -10 -8 -13 -5 -3 3 -12 -3
-19 -14 -10 -13 -21 -19 -33 -15 -13 4 -17 1 -16 -12 0 -12 -7 -19 -21 -21
-13 -2 -23 -9 -23 -17 0 -14 -41 -26 -75 -22 -15 1 -19 -3 -17 -18 2 -11 5
-24 5 -30 1 -5 -15 -14 -36 -19 -25 -6 -36 -15 -35 -25 2 -9 -1 -16 -7 -16 -5
-1 -25 -15 -44 -33 -18 -18 -42 -32 -52 -32 -10 0 -19 -6 -19 -14 0 -8 -11
-17 -25 -20 -15 -4 -23 -11 -19 -17 4 -7 -3 -10 -17 -9 -38 3 -42 1 -30 -14
10 -12 8 -17 -8 -25 -11 -6 -26 -10 -33 -9 -8 2 -12 -4 -10 -15 2 -9 -4 -20
-13 -23 -8 -3 -15 -12 -15 -19 0 -13 -28 -30 -42 -27 -5 1 -8 -2 -8 -6 0 -18
-43 -53 -60 -49 -13 3 -20 -2 -24 -19 -4 -13 -16 -26 -29 -29 -13 -4 -27 -16
-32 -28 -6 -12 -20 -23 -33 -25 -13 -2 -27 -14 -32 -28 -6 -15 -18 -25 -32
-26 -42 -2 -47 -3 -54 -11 -4 -4 0 -7 9 -7 26 0 9 -28 -27 -45 -17 -8 -40 -31
-50 -50 -13 -24 -23 -32 -30 -25 -19 19 -37 11 -30 -14 4 -19 0 -28 -20 -42
-15 -9 -30 -14 -34 -10 -3 4 -11 -8 -18 -26 -7 -23 -20 -36 -41 -43 -16 -5
-30 -12 -31 -15 -4 -27 -24 -59 -39 -64 -10 -3 -23 -16 -28 -28 -7 -16 -20
-24 -42 -26 -32 -3 -37 -9 -34 -44 3 -21 -29 -39 -57 -31 -22 5 -31 -10 -13
-21 18 -12 -2 -44 -32 -53 -22 -6 -33 -16 -35 -32 -4 -23 -31 -61 -44 -61 -4
0 -5 6 -2 14 4 10 -1 14 -14 13 -15 -1 -19 -7 -17 -25 3 -25 -15 -72 -27 -72
-5 0 -8 6 -8 13 0 9 -3 8 -9 -2 -5 -7 -14 -10 -20 -7 -6 4 -11 3 -11 -3 0 -5
4 -13 10 -16 6 -3 0 -15 -13 -28 -12 -12 -23 -28 -25 -35 -3 -17 -60 -72 -73
-72 -6 0 -9 -7 -5 -15 4 -10 -1 -15 -15 -15 -12 0 -17 -4 -14 -11 9 -13 -22
-48 -52 -60 -14 -5 -23 -18 -25 -36 -2 -21 -9 -29 -28 -31 -29 -4 -52 -21 -45
-32 11 -17 -17 -58 -35 -53 -17 5 -42 -24 -39 -44 3 -19 -2 -31 -15 -36 -10
-4 -13 -1 -9 9 4 10 -2 14 -21 14 -14 0 -26 -1 -26 -3 0 -1 4 -18 10 -36 8
-30 7 -38 -12 -55 -15 -14 -23 -16 -26 -8 -2 7 -11 12 -19 12 -13 0 -13 -2 -2
-17 8 -9 13 -18 12 -20 -2 -1 -3 -6 -3 -10 0 -5 5 -1 10 7 5 8 10 10 10 4 0
-6 -10 -19 -21 -30 -12 -10 -25 -29 -30 -41 -4 -12 -18 -23 -31 -25 -16 -2
-23 -10 -23 -24 0 -29 -24 -56 -45 -49 -18 6 -32 -18 -34 -60 -1 -14 -12 -23
-34 -30 -27 -8 -33 -14 -31 -35 4 -40 -11 -70 -39 -82 -17 -6 -22 -12 -14 -15
18 -7 -25 -53 -48 -53 -25 0 -30 -9 -20 -36 6 -14 6 -26 -1 -29 -5 -4 -18 -24
-29 -45 -16 -31 -24 -37 -41 -33 -16 5 -20 2 -19 -13 5 -43 0 -54 -24 -54 -14
0 -28 -4 -31 -10 -3 -5 -1 -10 4 -10 6 0 11 -9 11 -20 0 -13 -5 -18 -15 -14
-11 5 -15 -1 -15 -20 0 -40 -28 -78 -53 -70 -18 6 -19 3 -14 -23 4 -21 1 -34
-11 -45 -49 -47 -73 -78 -67 -87 14 -24 -6 -51 -37 -51 -23 0 -29 -4 -24 -15
3 -8 9 -22 12 -30 3 -8 2 -15 -3 -15 -5 0 -10 -6 -10 -13 0 -14 -53 -100 -65
-105 -5 -2 -8 -10 -8 -18 0 -8 -4 -14 -10 -14 -5 0 -10 -7 -10 -15 0 -9 -8
-19 -18 -23 -9 -4 -18 -14 -18 -22 0 -32 -26 -90 -40 -90 -12 0 -19 -19 -15
-43 1 -4 -6 -10 -14 -13 -8 -4 -15 -14 -15 -25 0 -23 -21 -69 -32 -69 -4 0 -8
5 -8 10 0 6 -5 10 -11 10 -6 0 -9 -7 -5 -15 3 -8 1 -15 -4 -15 -6 0 -10 -4
-10 -10 0 -5 7 -7 15 -4 11 5 13 2 9 -10 -3 -9 -10 -16 -15 -16 -5 0 -9 -10
-9 -22 -1 -27 -22 -58 -39 -58 -7 0 -9 -5 -6 -10 10 -16 -5 -50 -21 -50 -10 0
-13 -8 -10 -24 5 -29 -21 -69 -39 -62 -10 3 -12 -4 -10 -25 3 -18 -1 -32 -8
-35 -7 -2 -14 -14 -14 -27 -3 -38 -25 -67 -50 -67 -22 0 -23 -3 -19 -42 7 -55
-12 -108 -37 -108 -16 0 -17 -3 -8 -14 13 -16 -2 -32 -19 -21 -5 3 -10 2 -10
-4 0 -5 4 -12 9 -15 5 -4 2 -28 -7 -57 -12 -39 -20 -49 -33 -46 -12 3 -16 0
-12 -9 3 -8 -1 -14 -8 -14 -12 0 -12 -2 -1 -9 11 -7 10 -9 -3 -14 -9 -4 -15
-12 -14 -19 5 -43 -3 -79 -23 -98 -12 -11 -28 -18 -34 -16 -16 6 -11 -23 5
-34 11 -6 11 -8 1 -12 -7 -2 -14 -17 -16 -33 -8 -77 -21 -90 -56 -58 -10 9
-18 11 -18 5 0 -6 5 -12 12 -14 9 -3 9 -12 -1 -36 -7 -17 -9 -36 -5 -43 5 -9
10 -7 15 7 6 14 8 15 8 3 1 -8 -6 -24 -14 -35 -8 -10 -15 -30 -15 -44 0 -31
-14 -55 -27 -47 -6 4 -10 -7 -11 -24 0 -17 -6 -37 -12 -44 -6 -8 -13 -31 -15
-52 -4 -57 -22 -94 -42 -91 -15 3 -18 -5 -18 -52 -1 -54 -23 -160 -34 -160 -3
0 -7 -12 -8 -27 0 -15 -9 -32 -18 -39 -9 -7 -12 -15 -7 -18 6 -4 2 -31 -11
-70 -11 -36 -25 -62 -30 -59 -5 3 -6 -4 -2 -18 4 -13 4 -21 0 -17 -9 8 -34
-20 -34 -37 0 -5 6 -1 14 9 15 19 15 19 15 -2 0 -12 -4 -30 -9 -40 -6 -9 -20
-57 -32 -107 -28 -117 -35 -135 -55 -135 -11 0 -14 -5 -9 -17 13 -34 12 -62
-7 -135 -11 -40 -22 -86 -25 -101 -4 -22 -9 -26 -24 -22 -11 4 -19 2 -19 -3 0
-5 9 -12 19 -15 14 -3 18 -11 14 -26 -3 -12 -10 -21 -15 -21 -6 0 -8 -11 -6
-25 3 -14 -1 -53 -9 -88 -7 -34 -15 -72 -18 -83 -3 -12 -14 -24 -25 -27 -23
-6 -27 -27 -5 -27 15 0 21 -31 8 -44 -4 -3 -8 -34 -9 -68 -2 -34 -8 -64 -15
-69 -7 -4 -9 -14 -6 -22 5 -12 -7 -89 -39 -272 -3 -16 -6 -51 -6 -78 1 -26 -3
-45 -7 -43 -4 3 -8 -21 -8 -52 -1 -31 -11 -142 -23 -247 -12 -104 -24 -223
-26 -264 -2 -41 -8 -79 -14 -86 -5 -6 -7 -15 -4 -18 4 -3 8 -31 10 -62 3 -41
1 -54 -7 -49 -8 5 -9 3 -4 -6 4 -7 7 -34 7 -61 -2 -128 -1 -823 2 -891 2 -51
-1 -78 -8 -78 -7 0 -7 -3 -1 -8 16 -11 19 -82 3 -82 -9 0 -10 -3 -2 -8 15 -9
23 -91 9 -95 -6 -3 -6 -9 2 -18 7 -8 12 -24 12 -34 -1 -11 7 -84 15 -163 27
-235 31 -299 24 -333 -2 -8 2 -13 7 -12 6 1 11 -24 11 -58 0 -32 -3 -59 -8
-59 -4 0 -8 -7 -8 -15 0 -8 7 -15 15 -15 8 0 17 -10 19 -22 13 -63 29 -177 29
-205 -1 -18 3 -33 8 -33 5 0 9 -16 9 -35 0 -19 -5 -35 -11 -35 -6 0 -9 -6 -6
-12 2 -7 10 -12 16 -11 15 4 14 -20 -1 -35 -9 -9 -8 -12 5 -12 20 0 24 -46 5
-53 -8 -4 -7 -6 3 -6 12 -1 20 -19 30 -68 7 -38 12 -75 12 -83 0 -8 4 -21 10
-28 7 -9 7 -16 0 -23 -12 -12 -5 -51 8 -43 5 3 9 -5 9 -18 0 -13 14 -72 30
-132 16 -60 27 -112 25 -117 -3 -4 -1 -10 5 -14 5 -3 10 -12 10 -18 0 -7 -4
-6 -10 3 -8 12 -10 9 -10 -12 0 -17 5 -28 14 -28 7 0 16 -11 18 -25 3 -14 1
-25 -3 -25 -5 0 -9 -4 -9 -10 0 -5 6 -10 13 -10 8 0 20 -30 31 -77 10 -43 22
-86 27 -95 12 -24 11 -28 -7 -28 -13 0 -13 -3 4 -18 11 -9 30 -51 42 -92 13
-41 29 -95 36 -119 13 -41 13 -43 -6 -38 -11 3 -20 1 -20 -4 0 -5 10 -11 23
-14 17 -5 26 -20 40 -65 9 -33 17 -66 17 -74 0 -8 4 -16 9 -18 12 -4 61 -168
50 -168 -5 0 -9 -7 -9 -15 0 -8 7 -15 15 -15 9 0 15 -9 15 -25 0 -14 -6 -25
-12 -25 -9 0 -8 -3 2 -10 9 -6 17 -5 22 3 11 18 30 -41 32 -102 2 -46 6 -55
25 -63 13 -4 19 -13 15 -19 -3 -6 -1 -15 6 -19 7 -4 20 -30 30 -57 15 -42 15
-52 4 -68 -8 -10 -14 -24 -14 -29 0 -6 4 -5 9 3 6 10 13 10 29 2 20 -11 35
-52 37 -99 0 -13 7 -27 14 -31 11 -7 11 -9 0 -13 -10 -3 -4 -14 19 -36 19 -17
31 -36 27 -42 -3 -5 -1 -10 6 -10 8 0 10 -12 6 -36 -6 -37 3 -54 35 -67 9 -3
22 -23 27 -44 6 -21 20 -55 31 -75 17 -32 17 -38 5 -38 -8 0 -15 -5 -15 -11 0
-7 9 -9 21 -6 16 4 24 -2 35 -29 26 -62 28 -92 8 -97 -14 -3 -10 -6 14 -12 35
-8 62 -46 55 -77 -3 -10 0 -18 6 -18 6 0 8 -6 5 -14 -3 -8 3 -19 15 -25 11 -7
26 -21 32 -32 15 -28 20 -77 9 -84 -16 -10 2 -37 21 -32 27 7 54 -30 65 -92 3
-14 14 -31 25 -39 10 -7 26 -27 35 -44 15 -29 15 -32 0 -43 -25 -19 -19 -35
14 -35 20 0 33 -6 37 -17 4 -10 11 -21 15 -24 5 -3 10 -12 11 -20 2 -8 17 -34
34 -59 17 -26 33 -55 35 -65 1 -11 8 -23 13 -27 6 -5 5 -8 -2 -8 -7 0 -13 -4
-13 -10 0 -5 9 -10 20 -10 22 0 56 -54 51 -83 -1 -11 7 -21 24 -27 14 -5 24
-14 21 -18 -3 -5 4 -16 15 -25 11 -10 18 -21 15 -25 -3 -5 8 -24 25 -43 16
-19 30 -37 30 -41 1 -5 2 -14 3 -20 1 -7 7 -12 14 -11 17 4 15 -16 -5 -35 -16
-16 -15 -17 15 -20 36 -4 66 -39 56 -66 -3 -9 -1 -16 5 -16 6 0 11 5 11 12 0
7 17 -14 37 -47 21 -33 37 -63 36 -66 -1 -3 14 -21 32 -39 19 -19 35 -40 35
-47 0 -8 7 -16 15 -19 18 -7 38 -66 29 -87 -4 -12 -1 -17 10 -17 9 0 16 5 16
11 0 5 5 7 11 4 6 -4 8 -9 6 -12 -3 -2 6 -16 18 -29 19 -21 22 -31 15 -49 -11
-28 1 -39 29 -30 22 7 45 -24 35 -48 -3 -10 4 -17 21 -21 15 -4 30 -17 36 -33
5 -14 27 -43 49 -64 22 -22 39 -42 39 -46 -4 -25 5 -41 37 -61 29 -19 33 -26
24 -37 -10 -12 -7 -17 15 -25 14 -5 31 -10 36 -10 8 0 13 -15 10 -32 0 -5 7
-8 17 -9 10 0 12 -3 5 -6 -22 -8 -14 -33 10 -33 13 0 32 -9 42 -20 10 -11 14
-20 9 -20 -5 0 2 -7 14 -16 13 -9 21 -22 18 -29 -3 -8 5 -16 20 -19 20 -5 24
-11 18 -28 -4 -13 -2 -18 5 -14 5 4 19 -2 31 -14 11 -11 18 -20 15 -20 -3 0 4
-9 15 -20 11 -11 17 -26 14 -35 -5 -11 -2 -13 10 -9 10 4 16 1 16 -7 0 -8 14
-22 31 -32 25 -14 29 -20 19 -32 -13 -16 -6 -35 13 -35 8 0 8 3 -1 9 -11 7
-11 9 0 13 7 3 19 -1 26 -8 7 -8 10 -14 5 -14 -4 0 2 -7 13 -15 16 -13 17 -16
4 -24 -13 -9 -12 -12 5 -25 11 -9 30 -16 41 -16 29 0 50 -25 29 -34 -32 -12
-16 -35 28 -38 37 -3 42 -6 42 -28 0 -29 11 -40 43 -40 18 0 22 -6 22 -30 0
-25 4 -30 24 -30 33 0 56 -24 49 -52 -5 -17 -3 -20 11 -15 26 10 56 -14 56
-45 0 -22 5 -28 23 -28 32 -1 57 -23 57 -54 0 -27 15 -36 22 -14 5 15 38 -13
38 -31 0 -6 8 -8 18 -4 15 6 15 4 -2 -15 -18 -20 -18 -22 -1 -28 9 -4 20 -2
24 4 5 8 19 2 42 -18 18 -16 26 -27 17 -24 -10 3 -18 2 -18 -4 0 -12 25 -33
32 -27 3 3 18 1 33 -5 26 -10 27 -12 10 -24 -22 -16 -11 -39 16 -31 10 4 19 2
19 -4 0 -6 7 -8 15 -5 9 4 16 -3 21 -20 3 -14 9 -24 13 -21 4 2 25 -8 46 -22
35 -24 37 -27 19 -34 -16 -7 -17 -8 -1 -8 9 -1 17 -7 17 -13 0 -9 4 -8 10 2 9
13 12 13 21 -3 6 -10 22 -22 35 -27 13 -5 24 -15 24 -22 0 -8 16 -22 35 -32
20 -11 38 -30 41 -42 3 -13 21 -30 40 -39 28 -13 33 -21 30 -40 -6 -32 13 -43
31 -20 12 18 14 18 33 -3 11 -11 20 -26 20 -32 0 -6 5 -8 10 -5 10 6 38 -16
43 -32 1 -4 7 -8 13 -8 25 0 65 -30 70 -51 4 -14 11 -21 20 -17 21 8 44 -16
44 -44 0 -21 4 -24 30 -19 17 2 28 1 25 -4 -3 -4 5 -10 17 -13 12 -4 19 -9 16
-12 -10 -11 26 -42 43 -37 9 2 33 -14 55 -36 21 -22 48 -41 58 -43 10 -2 24
-13 30 -24 14 -26 26 -34 41 -29 6 3 18 -2 25 -11 7 -8 19 -15 26 -15 8 0 13
-5 11 -12 -1 -7 4 -12 11 -13 7 0 16 -6 21 -13 4 -7 14 -12 22 -10 8 2 13 -3
12 -9 -2 -9 9 -13 32 -13 l35 0 0 2025 0 2025 2594 0 2594 0 6 -22 c3 -13 6
-1299 6 -2858 0 -1559 0 -2844 0 -2854 0 -18 14 -19 528 -11 290 4 569 8 620
8 50 1 92 4 92 8 0 3 20 7 45 7 25 1 45 -3 45 -8 0 -6 10 -10 22 -10 21 0 21
0 2 15 -17 13 -13 15 51 16 39 2 79 2 90 2 11 -1 38 5 60 14 22 8 74 16 117
18 42 2 82 6 88 10 6 4 23 4 36 1 19 -5 24 -3 18 5 -7 12 9 11 91 -8 27 -6 29
-5 16 10 -12 15 -11 17 8 17 11 0 21 -6 21 -12 0 -7 5 -5 11 5 5 9 20 17 32
16 12 0 16 -3 10 -6 -7 -2 -13 -9 -13 -14 0 -15 54 2 70 22 9 11 33 20 65 23
28 3 66 10 86 15 19 6 53 10 75 10 21 -1 57 1 79 5 29 4 34 4 20 -3 -19 -9
-19 -10 3 -10 13 -1 22 5 22 14 0 8 9 15 19 15 11 0 21 4 23 10 2 5 19 11 38
14 19 2 48 9 65 16 20 8 31 8 33 1 5 -16 22 -13 22 4 0 10 10 15 33 15 56 0
96 6 110 18 11 10 67 22 115 26 9 1 28 8 42 15 13 8 44 14 67 13 24 0 46 5 51
12 9 15 115 41 130 32 14 -9 43 4 36 16 -4 5 4 9 17 8 44 -4 70 0 65 9 -6 9
34 29 69 34 11 1 26 6 33 11 7 4 24 5 37 2 16 -4 32 0 44 11 26 22 167 73 203
73 15 0 28 4 28 8 0 11 89 42 121 42 16 0 30 7 33 17 6 14 8 14 21 -3 11 -15
17 -16 23 -6 5 7 16 10 26 6 16 -6 17 -4 8 13 -10 18 -7 21 27 32 21 6 44 11
50 11 7 0 20 7 29 16 10 11 17 13 20 5 6 -18 30 -13 37 8 6 19 80 45 97 35 4
-3 8 2 8 10 0 19 5 20 32 5 15 -8 19 -8 14 0 -5 7 2 11 18 11 14 0 28 5 32 12
4 6 3 8 -4 4 -6 -3 -13 -2 -17 3 -3 6 11 13 32 17 21 4 50 16 65 27 14 11 31
16 37 13 6 -4 14 0 17 8 6 16 47 27 107 30 20 1 32 7 32 16 0 7 29 29 64 47
44 24 62 29 58 19 -5 -12 0 -16 18 -16 26 0 35 25 13 33 -7 2 -3 2 9 0 15 -2
27 4 35 17 8 12 24 20 40 20 16 0 28 6 28 13 0 6 21 23 48 36 26 12 55 27 65
32 11 6 17 5 17 -1 0 -5 5 -10 11 -10 6 0 8 7 5 16 -5 13 -2 15 13 11 22 -6
64 20 56 34 -4 5 3 9 15 9 11 0 26 5 33 10 34 29 87 57 117 64 19 3 48 19 65
35 33 32 102 56 108 38 7 -21 35 1 33 26 -3 26 2 30 72 59 17 7 32 16 32 20 0
4 7 4 17 1 11 -4 14 -3 9 5 -4 7 -1 12 9 12 8 0 18 7 21 15 5 11 10 13 19 5 9
-8 15 -8 20 0 3 5 3 10 0 10 -19 0 57 50 79 52 14 1 26 6 26 10 0 4 7 4 17 1
11 -4 14 -3 9 5 -4 7 -3 12 3 12 5 0 13 -4 16 -10 13 -21 25 -9 23 22 -3 29 1
34 30 44 19 6 37 15 40 21 15 23 85 54 109 49 13 -4 23 -2 23 4 0 5 -6 10 -12
10 -8 1 -6 6 5 14 9 7 17 18 17 24 0 6 10 14 23 18 12 4 38 20 58 35 20 16 42
29 49 29 7 0 19 8 27 18 10 12 16 14 19 5 10 -23 23 -14 32 19 6 24 15 34 33
36 29 5 51 21 43 33 -3 5 2 12 11 16 10 3 29 17 43 30 14 13 31 22 37 19 15
-5 27 3 41 29 9 15 20 19 43 17 28 -3 31 0 31 23 0 16 7 28 19 33 11 4 20 10
20 15 1 4 3 7 6 7 2 0 19 14 37 30 18 17 38 30 46 30 7 0 28 16 48 35 19 19
42 35 50 35 8 0 12 5 9 10 -3 6 4 10 15 10 13 0 24 8 27 20 3 13 14 20 28 20
25 0 50 24 41 38 -3 5 30 40 74 77 65 54 83 65 94 55 12 -9 15 -6 18 17 2 22
13 33 46 50 24 12 37 23 30 26 -17 7 6 25 42 33 51 12 52 12 40 34 -12 22 -4
25 57 21 31 -2 32 -1 24 26 -11 39 11 73 34 53 8 -7 18 -10 22 -7 3 4 -1 9
-10 13 -18 7 -11 34 9 34 8 0 11 -6 8 -15 -4 -8 -1 -15 5 -15 6 0 10 12 9 27
-2 15 3 28 11 31 7 2 22 13 31 22 10 10 22 15 26 12 4 -4 5 -2 1 3 -3 6 1 19
9 30 12 16 16 17 23 6 5 -8 16 -11 26 -8 9 4 14 11 11 16 -3 5 -1 23 5 41 10
26 15 31 35 26 26 -7 31 3 12 22 -8 8 -4 14 18 24 31 14 55 38 48 50 -9 14 39
37 67 31 32 -6 39 10 12 26 -16 9 -16 12 10 36 15 14 27 21 27 15 0 -13 37
-13 45 0 4 6 1 18 -6 26 -16 19 2 34 44 34 15 0 27 6 28 13 3 54 6 66 21 80 8
9 18 13 22 10 3 -4 6 2 6 13 0 19 53 74 71 74 15 0 50 40 44 50 -3 4 2 15 10
23 8 9 15 18 15 21 0 12 35 46 47 46 7 0 13 9 13 20 0 11 7 20 15 20 8 0 14 4
12 8 -1 4 13 25 31 47 18 22 30 32 26 22 -3 -10 -1 -17 6 -17 6 0 9 4 6 8 -11
18 27 71 56 77 24 6 29 11 24 29 -6 23 26 52 44 41 6 -4 11 -3 11 2 1 4 3 21
5 37 2 17 17 42 39 61 19 18 35 38 35 44 0 6 4 11 10 11 5 0 9 5 7 12 -1 6 9
17 23 24 14 8 25 21 25 31 1 31 15 43 52 43 35 0 35 0 20 23 -14 21 -13 25 9
46 13 13 24 30 24 38 0 11 3 13 13 5 8 -7 17 -6 30 3 10 7 13 15 8 16 -16 6 7
79 24 79 7 0 19 16 26 35 7 19 17 35 21 35 5 0 16 16 25 35 14 28 21 34 37 29
17 -6 19 -4 10 7 -8 10 -8 23 3 47 11 27 17 32 35 26 17 -5 20 -3 15 10 -4 9
-3 16 2 16 4 0 7 10 7 22 -1 19 6 24 34 28 30 5 33 7 17 16 -16 9 -17 12 -3
23 9 8 16 22 16 32 0 11 5 19 10 19 6 0 10 7 10 16 0 15 47 79 103 138 15 16
27 39 27 52 0 38 11 54 36 54 28 0 32 16 7 23 -17 4 -17 5 -1 6 11 1 15 6 12
16 -4 8 -1 15 6 15 6 0 8 5 5 10 -3 6 -1 10 4 10 6 0 11 8 11 18 0 11 9 27 20
37 11 10 17 22 14 26 -3 5 2 9 11 9 9 0 14 4 10 10 -3 5 2 19 12 30 54 65 53
64 53 47 0 -10 5 -17 10 -17 15 0 12 16 -5 34 -13 13 -12 20 9 61 12 26 27 46
32 46 5 0 9 8 9 18 0 10 5 24 11 32 6 8 15 24 18 37 10 29 45 49 57 31 11 -19
19 -7 12 20 -3 13 -11 20 -19 17 -8 -3 -14 -1 -14 4 0 6 7 10 16 10 10 0 14 6
11 14 -6 16 14 66 26 66 5 0 15 7 24 15 12 13 13 18 2 31 -10 12 -10 15 2 12
8 -2 14 4 15 12 2 34 17 70 29 70 14 0 27 24 30 55 5 48 27 84 53 87 14 2 27
9 30 16 2 7 -2 10 -10 7 -35 -14 7 107 56 159 14 16 26 34 25 40 -5 45 4 71
36 102 29 27 35 39 34 71 -2 46 25 114 43 111 9 -2 12 7 10 31 -3 39 35 131
54 131 7 0 16 4 19 10 3 6 -1 7 -9 4 -9 -3 -16 -1 -16 5 0 6 9 11 20 11 11 0
20 5 20 10 0 6 -4 10 -10 10 -5 0 -10 5 -10 11 0 5 5 7 12 3 7 -4 8 -3 4 4 -4
7 1 40 10 74 10 34 20 56 22 50 2 -7 10 -12 18 -12 10 0 13 7 8 25 -4 18 -1
32 12 46 14 16 16 22 5 28 -10 7 -2 43 41 170 30 89 57 159 60 156 2 -3 5 9 5
27 0 18 5 34 11 36 6 2 8 10 5 18 -3 8 -1 20 5 27 5 6 10 19 10 27 3 66 40
140 69 140 7 0 13 5 13 11 0 6 -9 8 -22 4 -18 -6 -20 -4 -14 11 4 11 10 33 13
49 13 74 35 135 49 135 17 0 19 17 3 22 -16 5 -1 48 17 48 8 0 14 10 14 25 0
14 -6 25 -12 25 -9 0 -9 3 -3 8 6 4 11 18 12 32 1 46 22 143 33 154 5 5 10 22
10 37 0 38 10 59 26 59 16 0 19 26 4 35 -12 7 -14 36 -2 32 10 -3 13 10 6 27
-5 12 7 82 31 180 2 11 10 23 17 27 9 6 9 11 0 22 -14 17 -6 28 15 20 11 -4
14 -1 11 13 -2 10 -9 18 -16 17 -12 -3 -5 57 8 67 4 3 7 33 8 68 3 100 19 185
39 200 14 10 15 14 5 21 -18 11 -5 101 16 117 12 9 12 15 2 33 -6 12 -9 30 -5
39 7 17 10 50 20 251 3 63 10 121 14 130 5 9 6 36 4 59 -2 26 0 42 5 38 6 -3
7 13 4 39 -3 28 0 50 7 59 8 9 9 21 4 30 -4 8 -4 79 0 158 10 165 4 1069 -7
1086 -4 7 -8 51 -8 99 -1 49 -5 93 -9 98 -9 12 -34 339 -31 413 1 32 -2 51 -8
47 -6 -4 -10 9 -10 29 0 19 -4 46 -10 60 -5 14 -6 26 -1 26 5 0 12 -8 15 -17
6 -14 9 -12 22 12 15 28 10 51 -6 26 -28 -46 -62 66 -63 209 0 36 -4 67 -9 71
-4 3 -12 27 -17 53 -7 37 -6 49 5 53 18 7 18 23 0 23 -32 0 -74 222 -51 275 4
11 5 17 0 13 -14 -13 -34 25 -35 65 0 20 -4 37 -8 37 -11 0 -31 89 -36 158 -2
28 0 52 5 52 5 0 9 7 9 15 0 8 -8 15 -18 15 -14 0 -23 15 -37 63 -9 34 -22 74
-27 89 -6 16 -8 37 -5 47 3 11 0 22 -7 25 -7 3 -7 5 2 5 6 1 12 6 12 11 0 6
-5 9 -12 8 -6 -2 -14 5 -16 15 -2 10 0 16 5 15 11 -4 14 8 6 28 -4 12 -7 13
-14 3 -6 -11 -9 -10 -13 1 -16 48 -29 108 -27 128 1 12 -3 22 -10 22 -9 0 -8
4 1 15 11 13 7 19 -11 17 -11 -2 -20 47 -13 60 4 6 3 8 -3 5 -12 -8 -36 63
-39 118 -1 22 -3 44 -3 48 -1 5 -5 6 -10 3 -12 -8 -55 111 -54 151 1 18 -3 36
-8 39 -5 3 -9 14 -9 25 0 10 -4 19 -10 19 -15 0 -31 38 -35 83 -3 24 -11 47
-21 54 -16 12 -16 13 7 13 16 0 20 3 11 9 -7 4 -12 12 -11 17 4 25 -2 35 -20
29 -15 -4 -22 3 -35 36 -9 22 -14 50 -11 60 4 10 2 19 -4 19 -6 0 -8 6 -5 14
3 8 -7 25 -21 39 -20 17 -29 38 -32 71 -3 25 -10 46 -14 46 -5 0 -9 11 -9 25
0 14 -4 25 -10 25 -13 0 -37 48 -46 94 -3 21 -14 46 -23 56 -32 33 -48 75 -45
117 2 32 0 41 -10 37 -14 -5 -46 36 -46 61 0 8 -3 15 -7 15 -17 0 -32 52 -22
73 9 16 9 19 -4 14 -19 -7 -36 12 -43 49 -3 15 -12 33 -21 39 -10 8 -14 20
-10 34 3 11 1 19 -4 16 -10 -7 -51 55 -46 70 2 5 -3 16 -10 24 -10 10 -11 17
-4 24 19 19 13 40 -10 34 -17 -5 -24 3 -42 41 -12 26 -22 50 -23 55 -1 4 -3
10 -4 15 -1 4 -2 10 -1 15 0 4 -5 7 -13 7 -17 0 -50 66 -42 85 3 8 -5 16 -20
19 -16 4 -25 14 -26 29 -3 47 -4 52 -16 49 -7 -1 -12 4 -12 11 0 8 -9 22 -20
32 -11 10 -20 22 -20 28 0 5 -9 22 -20 37 -13 18 -16 31 -10 35 20 12 10 34
-17 37 -24 3 -28 8 -28 35 0 22 -8 37 -28 53 -16 13 -26 29 -23 36 3 9 -2 14
-13 14 -10 0 -21 7 -25 15 -3 8 -2 15 3 15 5 0 11 9 14 21 5 18 2 20 -18 15
-14 -4 -28 0 -36 10 -14 17 -15 20 -17 62 -2 15 -9 22 -24 23 -20 1 -20 2 -4
6 15 4 16 7 5 14 -10 6 -10 9 -1 9 6 0 12 5 12 11 0 7 -12 10 -30 7 -31 -5
-35 4 -33 60 1 9 -6 12 -18 9 -21 -6 -42 15 -44 44 -1 11 -10 26 -21 33 -10 8
-19 20 -19 28 -1 7 -6 12 -13 10 -7 -1 -12 7 -12 18 0 11 -9 29 -19 39 -18 18
-18 20 -3 24 11 3 6 7 -15 12 -35 8 -45 26 -45 82 0 29 -3 34 -19 30 -10 -3
-19 -1 -19 4 0 5 -6 9 -14 9 -7 0 -13 10 -14 23 0 45 -13 66 -39 64 -28 -2
-58 32 -36 40 20 7 2 33 -23 33 -17 0 -27 8 -34 24 -5 14 -18 30 -30 36 -11 6
-20 19 -20 29 0 10 -9 26 -21 37 -17 15 -20 26 -15 57 6 36 5 38 -16 35 -17
-2 -22 -9 -20 -22 3 -17 2 -18 -12 -7 -9 7 -13 17 -10 22 3 5 1 9 -5 9 -5 0
-9 12 -8 27 2 23 -3 29 -23 31 -32 5 -51 21 -49 41 3 33 -2 41 -24 41 -28 0
-47 17 -47 42 0 10 -6 18 -14 18 -7 0 -24 14 -37 32 -13 17 -29 36 -35 42 -6
6 -9 17 -6 24 2 6 -5 15 -15 19 -30 11 -72 55 -66 70 3 7 -1 13 -10 13 -16 0
-32 27 -28 49 3 19 -21 32 -36 19 -10 -8 -13 -6 -13 6 0 9 -6 19 -14 22 -8 3
-12 13 -9 24 4 14 1 18 -14 14 -24 -7 -56 37 -46 62 5 13 2 15 -17 9 -15 -5
-20 -4 -16 4 4 6 -4 13 -19 17 -23 6 -25 10 -19 42 6 33 5 35 -16 29 -37 -10
-63 10 -55 41 5 22 4 24 -9 13 -12 -10 -20 -7 -45 18 -17 17 -31 34 -31 38 0
5 -10 13 -22 18 -16 7 -24 20 -26 43 -3 28 -7 32 -33 32 -22 0 -32 6 -38 23
-5 12 -6 28 -4 35 4 8 -5 12 -26 12 -37 0 -79 36 -62 53 19 19 12 29 -18 22
-25 -5 -31 -2 -42 23 -9 22 -18 28 -33 25 -16 -4 -18 -2 -7 5 11 8 10 12 -6
21 -11 5 -23 7 -27 4 -3 -3 -6 1 -6 10 0 8 -6 18 -12 21 -7 3 -4 4 6 3 10 -1
21 4 24 12 3 10 -1 12 -18 8 -33 -8 -70 9 -70 33 0 14 -7 20 -21 20 -22 0 -49
22 -49 39 0 6 -9 11 -20 11 -13 0 -25 10 -33 28 -8 17 -18 26 -29 24 -15 -3
-53 26 -120 92 -23 22 -27 31 -16 37 10 7 10 9 -2 10 -8 1 -19 3 -25 4 -5 2
-16 3 -23 4 -9 1 -11 8 -7 22 6 19 4 21 -19 17 -20 -4 -26 -2 -22 8 3 9 -4 16
-19 20 -14 3 -25 12 -25 20 0 8 -8 14 -17 14 -10 0 -31 9 -48 20 -16 11 -26
20 -21 20 12 0 -11 24 -24 26 -6 1 -15 2 -22 3 -9 1 -9 4 0 13 10 10 4 15 -25
23 -35 10 -38 13 -35 44 3 29 2 32 -17 26 -32 -10 -81 3 -74 21 3 10 -2 14
-18 14 -30 1 -73 35 -93 74 -9 17 -25 31 -38 33 -39 5 -48 12 -42 28 5 11 0
15 -19 15 -14 0 -27 6 -30 13 -3 7 -23 19 -46 26 -41 12 -51 24 -28 35 6 3 0
4 -15 1 -16 -3 -28 -1 -28 5 0 5 -6 10 -13 10 -7 0 -20 9 -30 20 -9 11 -12 20
-7 20 6 0 10 9 10 20 0 22 -7 25 -28 11 -9 -5 -29 -1 -52 10 -22 11 -45 19
-52 19 -7 0 -30 16 -51 35 -21 19 -42 35 -48 35 -13 0 -11 14 3 28 9 9 9 12 0
12 -7 0 -12 -4 -12 -10 0 -16 -40 -12 -46 5 -4 8 -13 15 -20 15 -27 0 -63 31
-57 47 5 12 2 15 -10 10 -18 -7 -87 21 -87 35 0 5 -26 21 -57 36 -40 19 -59
34 -64 52 -4 14 -7 21 -8 15 -1 -12 -51 -17 -51 -5 0 4 -11 11 -25 14 -14 4
-34 20 -44 37 -16 26 -26 32 -62 33 -24 2 -45 8 -47 15 -4 11 -30 25 -57 31
-5 1 -17 7 -25 14 -8 7 -30 19 -48 26 -28 11 -31 15 -18 22 20 11 11 28 -14
28 -14 0 -18 -5 -13 -16 4 -12 2 -15 -8 -12 -8 3 -15 11 -15 19 -1 8 -2 18 -3
23 0 5 -8 3 -16 -4 -13 -11 -37 -3 -85 28 -2 2 2 7 10 12 23 14 4 24 -55 26
-58 2 -109 26 -80 38 9 3 13 10 10 16 -8 13 -45 13 -45 0 0 -5 -7 -10 -16 -10
-8 0 -13 4 -10 9 4 5 -3 7 -14 4 -14 -4 -20 -1 -18 8 2 8 -4 13 -14 11 -9 -1
-36 8 -59 20 -40 21 -41 23 -20 28 l24 5 -27 12 c-14 7 -26 9 -26 4 0 -13 -89
7 -106 24 -9 8 -22 15 -30 15 -8 0 -14 6 -14 14 0 9 -17 16 -51 21 -32 4 -49
11 -46 19 3 6 -6 12 -21 13 -14 0 -29 8 -34 16 -5 11 -20 14 -43 12 -19 -2
-35 1 -35 7 0 5 -4 7 -9 4 -5 -3 -29 3 -52 14 -24 11 -36 20 -26 20 10 0 17 8
17 20 0 11 -5 20 -11 20 -5 0 -7 -5 -3 -12 4 -7 3 -8 -5 -4 -6 4 -38 9 -69 10
-46 3 -63 8 -83 28 -14 14 -23 30 -21 36 2 7 -3 12 -12 12 -9 0 -16 -3 -16 -7
0 -5 -20 -8 -45 -8 -25 0 -45 3 -45 8 0 4 -10 7 -22 7 -13 0 -30 5 -38 10 -13
8 -12 10 3 10 9 0 17 5 17 10 0 14 -24 12 -38 -2 -10 -10 -15 -10 -21 1 -5 8
-7 20 -4 28 6 15 1 16 -51 4 -32 -8 -52 -5 -114 18 -50 19 -69 30 -58 34 17 7
47 -1 57 -16 3 -5 9 1 12 12 5 20 2 21 -93 21 -69 0 -103 4 -112 13 -7 8 -23
19 -35 26 -14 7 -20 17 -16 27 5 14 -2 15 -53 9 -32 -4 -60 -9 -62 -10 -8 -7
-117 23 -118 33 -3 23 -4 24 -19 12 -19 -16 -49 5 -40 29 5 12 2 12 -13 -2
-24 -21 -52 -22 -52 -1 0 11 -5 14 -17 10 -9 -4 -41 -4 -70 0 -47 5 -56 10
-69 37 -13 24 -18 27 -26 16 -7 -11 -11 -11 -15 -1 -7 18 -44 16 -37 -3 8 -21
-12 -19 -35 4 -11 11 -28 17 -39 15 -33 -9 -163 14 -183 32 -12 11 -19 13 -19
5 0 -16 -42 -4 -53 15 -5 8 -19 11 -42 7 -19 -3 -35 -2 -35 3 0 5 -40 10 -88
11 -92 2 -161 23 -125 38 17 7 17 8 -2 15 -11 4 -26 3 -32 -2 -7 -6 -24 -8
-38 -6 -14 3 -28 1 -31 -3 -3 -5 -15 -9 -27 -8 -12 0 -16 3 -9 6 31 12 7 22
-50 21 -70 -2 -228 11 -242 20 -6 3 -19 6 -30 7 -12 1 -32 5 -45 9 -17 6 -22
5 -16 -4 5 -8 2 -11 -11 -7 -11 3 -49 8 -86 12 -58 6 -68 9 -68 26 0 23 -15
25 -24 4 -5 -13 -19 -15 -83 -10 -43 3 -94 8 -113 11 -19 3 -60 7 -90 9 -111
7 -1025 17 -1030 12z m8024 -4243 c10 -26 7 -562 -4 -698 -9 -106 -25 -214
-45 -296 -2 -8 -4 -23 -4 -32 -1 -10 -7 -18 -15 -18 -24 0 -30 -22 -11 -36 15
-11 16 -16 6 -28 -7 -8 -10 -19 -7 -24 3 -5 -7 -52 -21 -105 -19 -71 -30 -97
-42 -97 -13 0 -13 -2 -3 -9 11 -6 10 -10 -3 -15 -13 -4 -14 -10 -7 -19 7 -9 5
-28 -7 -65 -22 -63 -26 -68 -46 -52 -8 7 -15 8 -15 2 0 -5 -3 -24 -6 -41 -5
-24 -3 -31 10 -31 14 0 13 -7 -6 -57 -11 -32 -31 -74 -43 -93 -12 -20 -26 -50
-30 -68 -4 -21 -16 -37 -31 -44 -13 -6 -24 -19 -24 -29 0 -10 -5 -21 -10 -24
-8 -5 -8 -11 0 -20 8 -9 8 -15 0 -20 -5 -3 -10 -15 -10 -26 0 -10 -7 -19 -15
-19 -8 0 -15 -8 -15 -17 0 -10 -12 -41 -27 -70 -24 -45 -32 -53 -57 -53 -27 0
-28 -2 -22 -35 4 -22 3 -35 -4 -35 -5 0 -10 -7 -10 -16 0 -12 -6 -15 -21 -11
-18 5 -20 2 -15 -19 5 -17 0 -34 -14 -54 -11 -15 -20 -33 -20 -39 0 -6 -12 -8
-32 -4 -27 5 -30 4 -25 -11 11 -27 -3 -67 -22 -65 -39 4 -49 -1 -44 -21 3 -11
9 -17 14 -14 13 8 10 -8 -5 -28 -7 -10 -19 -18 -25 -18 -7 0 -10 -4 -6 -9 3
-5 -6 -18 -20 -29 -14 -11 -25 -26 -25 -33 0 -16 -40 -59 -55 -59 -6 0 -18
-15 -26 -32 -9 -22 -20 -32 -32 -30 -11 2 -21 -7 -28 -25 -16 -42 -37 -62 -60
-56 -16 5 -20 2 -17 -14 4 -25 -19 -53 -42 -53 -20 0 -43 -23 -33 -33 9 -10
-17 -37 -36 -37 -9 0 -24 -14 -33 -30 -10 -17 -25 -33 -35 -36 -31 -10 -48
-22 -45 -33 1 -6 -5 -11 -13 -11 -8 0 -15 -6 -15 -14 0 -16 -42 -46 -63 -46
-8 0 -22 -11 -31 -25 -12 -18 -23 -24 -36 -20 -19 6 -50 -18 -50 -40 0 -17
-53 -52 -57 -38 -2 6 -13 9 -24 6 -15 -4 -17 -8 -8 -19 9 -11 8 -14 -5 -14 -9
0 -16 -7 -16 -15 0 -8 -6 -15 -12 -15 -7 0 -25 -7 -40 -14 -16 -8 -28 -11 -28
-5 0 5 -5 9 -11 9 -6 0 -9 -9 -6 -20 7 -27 -54 -65 -100 -62 -27 2 -33 -1 -39
-23 -4 -15 -13 -25 -24 -25 -10 0 -26 -8 -36 -17 -10 -10 -22 -19 -28 -19 -26
-4 -56 -17 -56 -24 0 -5 -13 -11 -30 -15 -36 -8 -107 -41 -114 -54 -4 -5 -21
-13 -39 -17 -17 -3 -41 -13 -52 -20 -26 -19 -32 -18 -38 6 -3 11 -12 20 -21
20 -22 0 -20 -17 2 -23 13 -3 11 -6 -10 -15 -16 -6 -28 -16 -28 -22 0 -5 -11
-10 -24 -10 -14 0 -28 -4 -31 -10 -3 -5 -19 -7 -35 -3 -22 4 -31 1 -36 -10 -4
-11 -17 -15 -50 -13 -36 3 -44 0 -44 -14 0 -17 -19 -23 -111 -36 -14 -2 -38
-8 -53 -14 -15 -5 -40 -10 -55 -10 -15 0 -32 -5 -39 -12 -9 -9 -12 -9 -12 2 0
13 -2 13 -9 1 -11 -17 -104 -31 -172 -26 -27 1 -49 -1 -49 -5 0 -4 -12 -11
-27 -15 -19 -4 -29 -2 -35 9 -12 21 -52 22 -44 1 4 -10 -2 -16 -17 -17 -12 -1
-53 -3 -92 -6 -153 -10 -10055 -12 -10055 -2 0 7 1666 10 4997 10 3370 0 4994
3 4987 10 -7 7 -1647 10 -4997 10 l-4987 0 0 280 c0 231 2 282 14 286 8 3 16
14 19 25 4 17 3 18 -9 8 -12 -9 -14 -6 -14 23 0 19 3 37 6 40 3 4 7 32 9 64 2
31 9 60 15 64 8 5 9 10 2 14 -12 7 -8 57 15 179 16 84 18 88 40 82 23 -5 32 8
13 20 -6 4 -8 16 -4 28 4 12 9 47 10 77 5 90 22 150 45 150 20 0 23 13 21 79
-1 19 3 40 9 47 5 6 9 16 8 20 -1 5 1 21 5 37 6 20 15 27 32 27 24 0 28 19 10
48 -5 9 -3 12 6 10 16 -4 20 9 12 36 -4 11 9 49 31 95 20 42 45 92 54 111 10
22 23 34 34 34 13 -2 16 3 11 18 -4 13 -2 18 4 14 6 -4 8 2 5 15 -7 25 15 69
35 69 8 0 12 6 9 13 -3 8 7 36 22 63 23 43 30 49 55 46 27 -4 28 -2 24 29 -5
33 14 83 37 96 7 5 21 26 31 48 15 31 25 40 44 40 21 0 25 4 22 27 -2 19 4 31
18 40 11 7 20 19 20 26 0 19 50 82 63 79 6 -1 13 8 15 20 2 12 28 47 58 77 30
31 54 60 54 65 0 5 8 11 19 14 10 2 25 17 32 32 9 18 27 33 49 40 19 7 34 15
33 18 -9 22 1 40 25 49 16 6 36 24 45 40 9 15 27 32 40 37 13 5 27 17 30 25 4
9 13 16 22 16 8 0 15 7 15 15 0 8 6 15 14 15 8 0 17 7 20 16 6 15 8 15 26 -1
19 -18 20 -17 20 9 0 17 7 29 18 32 9 3 24 8 32 10 13 5 13 6 0 15 -12 9 -10
10 7 6 15 -3 23 1 26 14 3 11 19 24 36 30 17 6 31 15 31 20 0 18 41 49 64 49
13 0 26 7 30 15 3 8 11 15 18 15 7 0 26 14 41 30 31 32 46 37 65 18 7 -7 12
-8 12 -2 0 6 -5 15 -10 20 -13 13 84 58 115 54 11 -1 17 1 13 6 -11 11 39 54
65 55 12 1 29 3 37 4 8 1 25 3 38 4 15 1 22 7 22 21 0 10 10 25 23 32 25 15
28 15 80 17 30 1 40 6 44 22 5 19 7 19 34 -7 16 -15 29 -23 29 -17 0 6 -7 13
-15 17 -8 3 -15 12 -15 21 0 18 64 47 87 38 9 -4 21 1 29 12 9 12 23 16 48 13
19 -2 33 -2 31 0 -17 18 74 54 114 46 16 -3 31 -1 35 4 3 6 16 8 28 4 17 -4
20 -2 15 11 -5 13 11 19 85 37 50 12 97 19 104 16 7 -3 16 -1 19 5 4 5 22 7
41 3 24 -4 34 -2 34 6 0 8 9 10 25 6 25 -6 91 6 130 24 11 5 61 14 110 18 50
5 2308 10 5126 11 4585 1 5037 0 5043 -15z m-4017 -5406 c-4 -217 -11 -373
-21 -448 -9 -63 -16 -118 -16 -122 0 -5 -7 -8 -15 -8 -18 0 -19 -5 -3 -29 9
-14 8 -29 -5 -69 -9 -28 -14 -57 -11 -65 8 -21 -36 -180 -53 -190 -8 -5 -11
-17 -7 -33 3 -13 2 -37 -4 -52 -6 -15 -15 -48 -22 -74 -8 -31 -18 -48 -31 -51
-10 -3 -19 -13 -19 -22 0 -9 5 -13 10 -10 13 8 14 12 -20 -84 -17 -46 -30 -85
-30 -87 0 -2 -9 -4 -20 -4 -16 0 -20 -7 -22 -32 -5 -95 -14 -114 -55 -109 -6
1 -14 -3 -18 -9 -3 -6 4 -11 17 -11 16 -1 18 -3 6 -6 -9 -2 -16 -12 -16 -21 2
-27 -23 -92 -35 -93 -7 -1 -18 -1 -24 0 -7 1 -13 -3 -13 -9 0 -5 6 -10 14 -10
9 0 12 -7 9 -20 -7 -25 -20 -26 -27 -2 -3 9 -4 4 -1 -13 3 -30 -39 -125 -57
-125 -5 0 -18 -21 -28 -46 -11 -25 -23 -43 -28 -40 -4 2 -13 -4 -20 -15 -7
-12 -8 -19 -2 -19 6 0 0 -15 -12 -34 -12 -18 -29 -33 -37 -32 -11 1 -15 -6
-13 -21 2 -16 -4 -26 -22 -35 -14 -6 -26 -15 -26 -20 0 -5 -10 -13 -22 -18
-21 -8 -21 -9 -3 -10 11 0 16 -4 10 -8 -5 -4 -20 -25 -31 -47 -12 -22 -31 -44
-43 -50 -11 -5 -21 -15 -21 -22 0 -21 -50 -72 -66 -66 -8 3 -14 2 -13 -3 6
-32 -3 -44 -30 -44 -34 0 -48 -15 -32 -34 14 -17 -13 -43 -49 -48 -14 -1 -25
-10 -26 -18 -3 -45 -5 -49 -19 -44 -8 4 -17 -1 -21 -9 -3 -9 -12 -13 -21 -10
-11 4 -14 2 -9 -5 13 -22 -13 -53 -42 -50 -22 2 -27 -1 -27 -20 0 -26 -29 -52
-58 -52 -14 0 -18 -5 -15 -18 4 -13 -4 -25 -23 -38 -16 -10 -29 -22 -29 -26 0
-5 -11 -8 -25 -8 -18 0 -25 -5 -25 -20 0 -13 -9 -22 -27 -26 -16 -4 -31 -12
-35 -18 -6 -8 -11 -7 -17 3 -13 20 -29 5 -26 -24 4 -28 -18 -45 -46 -38 -12 4
-18 -2 -21 -19 -2 -14 -15 -29 -35 -39 -18 -9 -39 -21 -46 -27 -7 -6 -24 -9
-38 -6 -19 5 -21 4 -9 -5 13 -10 13 -12 0 -21 -8 -6 -28 -13 -43 -17 -15 -3
-32 -14 -38 -25 -7 -13 -18 -18 -30 -15 -12 3 -19 0 -19 -9 0 -13 -23 -19 -64
-16 -13 2 -16 -3 -12 -13 7 -18 -47 -55 -81 -55 -12 0 -29 -8 -39 -17 -9 -9
-28 -17 -43 -18 -14 0 -26 -5 -26 -12 0 -19 -14 -27 -53 -29 -20 -1 -45 -3
-54 -3 -10 -1 -18 -8 -18 -16 0 -9 -6 -15 -14 -13 -8 2 -21 -5 -29 -16 -8 -11
-31 -20 -60 -23 -26 -3 -47 -9 -47 -13 0 -19 -41 -17 -56 3 l-16 22 7 -23 c6
-22 4 -23 -27 -20 -27 2 -32 0 -30 -14 3 -19 -9 -23 -103 -33 -33 -4 -63 -12
-67 -19 -6 -8 -10 -7 -17 3 -11 18 -47 6 -54 -18 -5 -19 -76 -39 -96 -27 -5 4
-13 2 -16 -4 -4 -6 -21 -8 -42 -4 -24 4 -38 3 -43 -6 -6 -10 -15 -9 -40 3 -28
15 -35 15 -59 2 l-26 -14 30 -1 c43 -2 21 -8 -65 -18 -53 -7 -77 -6 -82 2 -6
8 -11 7 -17 -3 -7 -11 -41 -17 -123 -22 -62 -4 -1437 -8 -3055 -8 l-2943 -1 0
1900 0 1900 4616 0 4616 0 -5 -332z"/>
</g>
</svg>
